<?xml version="1.0" encoding="UTF-8" standalone="no"?>
<!DOCTYPE svg PUBLIC "-//W3C//DTD SVG 1.1//EN"
 "http://www.w3.org/Graphics/SVG/1.1/DTD/svg11.dtd">
<!-- Generated by graphviz version 2.43.0 (0)
 -->
<!-- Title: %3 Pages: 1 -->
<svg width="1325pt" height="476pt"
 viewBox="0.00 0.00 1324.50 476.00" xmlns="http://www.w3.org/2000/svg" xmlns:xlink="http://www.w3.org/1999/xlink">
<g id="graph0" class="graph" transform="scale(1 1) rotate(0) translate(4 472)">
<title>%3</title>
<polygon fill="white" stroke="transparent" points="-4,4 -4,-472 1320.5,-472 1320.5,4 -4,4"/>
<!-- [root] aws_elb.polygon&#45;elb (expand) -->
<g id="node1" class="node">
<title>[root] aws_elb.polygon&#45;elb (expand)</title>
<polygon fill="none" stroke="black" points="1088.5,-324 928.5,-324 928.5,-288 1088.5,-288 1088.5,-324"/>
<text text-anchor="middle" x="1008.5" y="-302.3" font-family="Times,serif" font-size="14.00">aws_elb.polygon&#45;elb</text>
</g>
<!-- [root] aws_instance.ubuntu&#45;1&#45;instance (expand) -->
<g id="node2" class="node">
<title>[root] aws_instance.ubuntu&#45;1&#45;instance (expand)</title>
<polygon fill="none" stroke="black" points="1279,-252 1034,-252 1034,-216 1279,-216 1279,-252"/>
<text text-anchor="middle" x="1156.5" y="-230.3" font-family="Times,serif" font-size="14.00">aws_instance.ubuntu&#45;1&#45;instance</text>
</g>
<!-- [root] aws_elb.polygon&#45;elb (expand)&#45;&gt;[root] aws_instance.ubuntu&#45;1&#45;instance (expand) -->
<g id="edge1" class="edge">
<title>[root] aws_elb.polygon&#45;elb (expand)&#45;&gt;[root] aws_instance.ubuntu&#45;1&#45;instance (expand)</title>
<path fill="none" stroke="black" d="M1044.7,-287.88C1064.76,-278.39 1089.87,-266.51 1111.21,-256.42"/>
<polygon fill="black" stroke="black" points="1112.87,-259.51 1120.41,-252.07 1109.88,-253.18 1112.87,-259.51"/>
</g>
<!-- [root] aws_instance.ubuntu&#45;2&#45;instance (expand) -->
<g id="node3" class="node">
<title>[root] aws_instance.ubuntu&#45;2&#45;instance (expand)</title>
<polygon fill="none" stroke="black" points="1016,-252 771,-252 771,-216 1016,-216 1016,-252"/>
<text text-anchor="middle" x="893.5" y="-230.3" font-family="Times,serif" font-size="14.00">aws_instance.ubuntu&#45;2&#45;instance</text>
</g>
<!-- [root] aws_elb.polygon&#45;elb (expand)&#45;&gt;[root] aws_instance.ubuntu&#45;2&#45;instance (expand) -->
<g id="edge2" class="edge">
<title>[root] aws_elb.polygon&#45;elb (expand)&#45;&gt;[root] aws_instance.ubuntu&#45;2&#45;instance (expand)</title>
<path fill="none" stroke="black" d="M980.37,-287.88C965.33,-278.72 946.63,-267.34 930.44,-257.48"/>
<polygon fill="black" stroke="black" points="932.1,-254.4 921.74,-252.19 928.46,-260.38 932.1,-254.4"/>
</g>
<!-- [root] aws_security_group.polygon&#45;http&#45;rdp&#45;winrm (expand) -->
<g id="node8" class="node">
<title>[root] aws_security_group.polygon&#45;http&#45;rdp&#45;winrm (expand)</title>
<polygon fill="none" stroke="black" points="1316.5,-180 984.5,-180 984.5,-144 1316.5,-144 1316.5,-180"/>
<text text-anchor="middle" x="1150.5" y="-158.3" font-family="Times,serif" font-size="14.00">aws_security_group.polygon&#45;http&#45;rdp&#45;winrm</text>
</g>
<!-- [root] aws_instance.ubuntu&#45;1&#45;instance (expand)&#45;&gt;[root] aws_security_group.polygon&#45;http&#45;rdp&#45;winrm (expand) -->
<g id="edge3" class="edge">
<title>[root] aws_instance.ubuntu&#45;1&#45;instance (expand)&#45;&gt;[root] aws_security_group.polygon&#45;http&#45;rdp&#45;winrm (expand)</title>
<path fill="none" stroke="black" d="M1155.02,-215.7C1154.36,-207.98 1153.56,-198.71 1152.82,-190.11"/>
<polygon fill="black" stroke="black" points="1156.31,-189.77 1151.97,-180.1 1149.33,-190.37 1156.31,-189.77"/>
</g>
<!-- [root] aws_subnet.polygon&#45;subnet&#45;public&#45;1 (expand) -->
<g id="node9" class="node">
<title>[root] aws_subnet.polygon&#45;subnet&#45;public&#45;1 (expand)</title>
<polygon fill="none" stroke="black" points="966,-180 691,-180 691,-144 966,-144 966,-180"/>
<text text-anchor="middle" x="828.5" y="-158.3" font-family="Times,serif" font-size="14.00">aws_subnet.polygon&#45;subnet&#45;public&#45;1</text>
</g>
<!-- [root] aws_instance.ubuntu&#45;1&#45;instance (expand)&#45;&gt;[root] aws_subnet.polygon&#45;subnet&#45;public&#45;1 (expand) -->
<g id="edge4" class="edge">
<title>[root] aws_instance.ubuntu&#45;1&#45;instance (expand)&#45;&gt;[root] aws_subnet.polygon&#45;subnet&#45;public&#45;1 (expand)</title>
<path fill="none" stroke="black" d="M1076.68,-215.97C1028.87,-205.76 967.96,-192.76 918.45,-182.2"/>
<polygon fill="black" stroke="black" points="918.9,-178.71 908.39,-180.05 917.44,-185.56 918.9,-178.71"/>
</g>
<!-- [root] aws_instance.ubuntu&#45;2&#45;instance (expand)&#45;&gt;[root] aws_security_group.polygon&#45;http&#45;rdp&#45;winrm (expand) -->
<g id="edge5" class="edge">
<title>[root] aws_instance.ubuntu&#45;2&#45;instance (expand)&#45;&gt;[root] aws_security_group.polygon&#45;http&#45;rdp&#45;winrm (expand)</title>
<path fill="none" stroke="black" d="M956.04,-215.97C992.73,-205.97 1039.26,-193.3 1077.61,-182.85"/>
<polygon fill="black" stroke="black" points="1078.95,-186.12 1087.68,-180.11 1077.11,-179.36 1078.95,-186.12"/>
</g>
<!-- [root] aws_subnet.polygon&#45;subnet&#45;public&#45;2 (expand) -->
<g id="node10" class="node">
<title>[root] aws_subnet.polygon&#45;subnet&#45;public&#45;2 (expand)</title>
<polygon fill="none" stroke="black" points="390,-180 115,-180 115,-144 390,-144 390,-180"/>
<text text-anchor="middle" x="252.5" y="-158.3" font-family="Times,serif" font-size="14.00">aws_subnet.polygon&#45;subnet&#45;public&#45;2</text>
</g>
<!-- [root] aws_instance.ubuntu&#45;2&#45;instance (expand)&#45;&gt;[root] aws_subnet.polygon&#45;subnet&#45;public&#45;2 (expand) -->
<g id="edge6" class="edge">
<title>[root] aws_instance.ubuntu&#45;2&#45;instance (expand)&#45;&gt;[root] aws_subnet.polygon&#45;subnet&#45;public&#45;2 (expand)</title>
<path fill="none" stroke="black" d="M770.9,-220.13C673.36,-209.83 533.1,-194.86 400.18,-180.07"/>
<polygon fill="black" stroke="black" points="400.54,-176.59 390.21,-178.96 399.76,-183.55 400.54,-176.59"/>
</g>
<!-- [root] aws_internet_gateway.polygon&#45;igw (expand) -->
<g id="node4" class="node">
<title>[root] aws_internet_gateway.polygon&#45;igw (expand)</title>
<polygon fill="none" stroke="black" points="672.5,-180 408.5,-180 408.5,-144 672.5,-144 672.5,-180"/>
<text text-anchor="middle" x="540.5" y="-158.3" font-family="Times,serif" font-size="14.00">aws_internet_gateway.polygon&#45;igw</text>
</g>
<!-- [root] aws_vpc.polygon&#45;vpc (expand) -->
<g id="node11" class="node">
<title>[root] aws_vpc.polygon&#45;vpc (expand)</title>
<polygon fill="none" stroke="black" points="767.5,-108 601.5,-108 601.5,-72 767.5,-72 767.5,-108"/>
<text text-anchor="middle" x="684.5" y="-86.3" font-family="Times,serif" font-size="14.00">aws_vpc.polygon&#45;vpc</text>
</g>
<!-- [root] aws_internet_gateway.polygon&#45;igw (expand)&#45;&gt;[root] aws_vpc.polygon&#45;vpc (expand) -->
<g id="edge7" class="edge">
<title>[root] aws_internet_gateway.polygon&#45;igw (expand)&#45;&gt;[root] aws_vpc.polygon&#45;vpc (expand)</title>
<path fill="none" stroke="black" d="M575.73,-143.88C595.08,-134.47 619.27,-122.71 639.93,-112.67"/>
<polygon fill="black" stroke="black" points="641.67,-115.71 649.14,-108.19 638.61,-109.41 641.67,-115.71"/>
</g>
<!-- [root] aws_route_table.polygon&#45;public&#45;crt (expand) -->
<g id="node5" class="node">
<title>[root] aws_route_table.polygon&#45;public&#45;crt (expand)</title>
<polygon fill="none" stroke="black" points="673.5,-252 407.5,-252 407.5,-216 673.5,-216 673.5,-252"/>
<text text-anchor="middle" x="540.5" y="-230.3" font-family="Times,serif" font-size="14.00">aws_route_table.polygon&#45;public&#45;crt</text>
</g>
<!-- [root] aws_route_table.polygon&#45;public&#45;crt (expand)&#45;&gt;[root] aws_internet_gateway.polygon&#45;igw (expand) -->
<g id="edge8" class="edge">
<title>[root] aws_route_table.polygon&#45;public&#45;crt (expand)&#45;&gt;[root] aws_internet_gateway.polygon&#45;igw (expand)</title>
<path fill="none" stroke="black" d="M540.5,-215.7C540.5,-207.98 540.5,-198.71 540.5,-190.11"/>
<polygon fill="black" stroke="black" points="544,-190.1 540.5,-180.1 537,-190.1 544,-190.1"/>
</g>
<!-- [root] aws_route_table_association.polygon&#45;crta&#45;public&#45;subnet&#45;1 (expand) -->
<g id="node6" class="node">
<title>[root] aws_route_table_association.polygon&#45;crta&#45;public&#45;subnet&#45;1 (expand)</title>
<polygon fill="none" stroke="black" points="872,-324 445,-324 445,-288 872,-288 872,-324"/>
<text text-anchor="middle" x="658.5" y="-302.3" font-family="Times,serif" font-size="14.00">aws_route_table_association.polygon&#45;crta&#45;public&#45;subnet&#45;1</text>
</g>
<!-- [root] aws_route_table_association.polygon&#45;crta&#45;public&#45;subnet&#45;1 (expand)&#45;&gt;[root] aws_route_table.polygon&#45;public&#45;crt (expand) -->
<g id="edge9" class="edge">
<title>[root] aws_route_table_association.polygon&#45;crta&#45;public&#45;subnet&#45;1 (expand)&#45;&gt;[root] aws_route_table.polygon&#45;public&#45;crt (expand)</title>
<path fill="none" stroke="black" d="M629.63,-287.88C614.21,-278.72 595.02,-267.34 578.4,-257.48"/>
<polygon fill="black" stroke="black" points="579.86,-254.28 569.48,-252.19 576.29,-260.3 579.86,-254.28"/>
</g>
<!-- [root] aws_route_table_association.polygon&#45;crta&#45;public&#45;subnet&#45;1 (expand)&#45;&gt;[root] aws_subnet.polygon&#45;subnet&#45;public&#45;1 (expand) -->
<g id="edge10" class="edge">
<title>[root] aws_route_table_association.polygon&#45;crta&#45;public&#45;subnet&#45;1 (expand)&#45;&gt;[root] aws_subnet.polygon&#45;subnet&#45;public&#45;1 (expand)</title>
<path fill="none" stroke="black" d="M678.03,-287.68C698.59,-269.56 732,-240.4 761.5,-216 773.36,-206.19 786.62,-195.62 798.2,-186.52"/>
<polygon fill="black" stroke="black" points="800.57,-189.11 806.28,-180.19 796.25,-183.6 800.57,-189.11"/>
</g>
<!-- [root] aws_route_table_association.polygon&#45;crta&#45;public&#45;subnet&#45;2 (expand) -->
<g id="node7" class="node">
<title>[root] aws_route_table_association.polygon&#45;crta&#45;public&#45;subnet&#45;2 (expand)</title>
<polygon fill="none" stroke="black" points="427,-324 0,-324 0,-288 427,-288 427,-324"/>
<text text-anchor="middle" x="213.5" y="-302.3" font-family="Times,serif" font-size="14.00">aws_route_table_association.polygon&#45;crta&#45;public&#45;subnet&#45;2</text>
</g>
<!-- [root] aws_route_table_association.polygon&#45;crta&#45;public&#45;subnet&#45;2 (expand)&#45;&gt;[root] aws_route_table.polygon&#45;public&#45;crt (expand) -->
<g id="edge11" class="edge">
<title>[root] aws_route_table_association.polygon&#45;crta&#45;public&#45;subnet&#45;2 (expand)&#45;&gt;[root] aws_route_table.polygon&#45;public&#45;crt (expand)</title>
<path fill="none" stroke="black" d="M293.08,-287.97C340.74,-277.76 401.46,-264.76 450.82,-254.2"/>
<polygon fill="black" stroke="black" points="451.81,-257.57 460.85,-252.05 450.34,-250.72 451.81,-257.57"/>
</g>
<!-- [root] aws_route_table_association.polygon&#45;crta&#45;public&#45;subnet&#45;2 (expand)&#45;&gt;[root] aws_subnet.polygon&#45;subnet&#45;public&#45;2 (expand) -->
<g id="edge12" class="edge">
<title>[root] aws_route_table_association.polygon&#45;crta&#45;public&#45;subnet&#45;2 (expand)&#45;&gt;[root] aws_subnet.polygon&#45;subnet&#45;public&#45;2 (expand)</title>
<path fill="none" stroke="black" d="M218.2,-287.87C224.88,-263.56 237.17,-218.82 245.08,-190.01"/>
<polygon fill="black" stroke="black" points="248.51,-190.76 247.78,-180.19 241.76,-188.91 248.51,-190.76"/>
</g>
<!-- [root] aws_security_group.polygon&#45;http&#45;rdp&#45;winrm (expand)&#45;&gt;[root] aws_vpc.polygon&#45;vpc (expand) -->
<g id="edge13" class="edge">
<title>[root] aws_security_group.polygon&#45;http&#45;rdp&#45;winrm (expand)&#45;&gt;[root] aws_vpc.polygon&#45;vpc (expand)</title>
<path fill="none" stroke="black" d="M1037.1,-143.97C957.59,-132.02 852.59,-116.25 777.91,-105.03"/>
<polygon fill="black" stroke="black" points="777.98,-101.5 767.57,-103.48 776.94,-108.43 777.98,-101.5"/>
</g>
<!-- [root] aws_subnet.polygon&#45;subnet&#45;public&#45;1 (expand)&#45;&gt;[root] aws_vpc.polygon&#45;vpc (expand) -->
<g id="edge14" class="edge">
<title>[root] aws_subnet.polygon&#45;subnet&#45;public&#45;1 (expand)&#45;&gt;[root] aws_vpc.polygon&#45;vpc (expand)</title>
<path fill="none" stroke="black" d="M793.27,-143.88C773.92,-134.47 749.73,-122.71 729.07,-112.67"/>
<polygon fill="black" stroke="black" points="730.39,-109.41 719.86,-108.19 727.33,-115.71 730.39,-109.41"/>
</g>
<!-- [root] aws_subnet.polygon&#45;subnet&#45;public&#45;2 (expand)&#45;&gt;[root] aws_vpc.polygon&#45;vpc (expand) -->
<g id="edge15" class="edge">
<title>[root] aws_subnet.polygon&#45;subnet&#45;public&#45;2 (expand)&#45;&gt;[root] aws_vpc.polygon&#45;vpc (expand)</title>
<path fill="none" stroke="black" d="M357.63,-143.97C429.04,-132.39 522.64,-117.23 591.37,-106.09"/>
<polygon fill="black" stroke="black" points="592.01,-109.53 601.32,-104.48 590.89,-102.62 592.01,-109.53"/>
</g>
<!-- [root] provider[&quot;registry.terraform.io/hashicorp/aws&quot;] -->
<g id="node15" class="node">
<title>[root] provider[&quot;registry.terraform.io/hashicorp/aws&quot;]</title>
<polygon fill="none" stroke="black" points="684.5,-36 359.24,-18 684.5,0 1009.76,-18 684.5,-36"/>
<text text-anchor="middle" x="684.5" y="-14.3" font-family="Times,serif" font-size="14.00">provider[&quot;registry.terraform.io/hashicorp/aws&quot;]</text>
</g>
<!-- [root] aws_vpc.polygon&#45;vpc (expand)&#45;&gt;[root] provider[&quot;registry.terraform.io/hashicorp/aws&quot;] -->
<g id="edge16" class="edge">
<title>[root] aws_vpc.polygon&#45;vpc (expand)&#45;&gt;[root] provider[&quot;registry.terraform.io/hashicorp/aws&quot;]</title>
<path fill="none" stroke="black" d="M684.5,-71.7C684.5,-63.98 684.5,-54.71 684.5,-46.11"/>
<polygon fill="black" stroke="black" points="688,-46.1 684.5,-36.1 681,-46.1 688,-46.1"/>
</g>
<!-- [root] output.loadbalance -->
<g id="node12" class="node">
<title>[root] output.loadbalance</title>
<polygon fill="none" stroke="black" points="1131,-396 984,-396 984,-360 1137,-360 1137,-390 1131,-396"/>
<polyline fill="none" stroke="black" points="1131,-396 1131,-390 "/>
<polyline fill="none" stroke="black" points="1137,-390 1131,-390 "/>
<text text-anchor="middle" x="1060.5" y="-374.3" font-family="Times,serif" font-size="14.00">output.loadbalance</text>
</g>
<!-- [root] output.loadbalance&#45;&gt;[root] aws_elb.polygon&#45;elb (expand) -->
<g id="edge17" class="edge">
<title>[root] output.loadbalance&#45;&gt;[root] aws_elb.polygon&#45;elb (expand)</title>
<path fill="none" stroke="black" d="M1047.65,-359.7C1041.47,-351.39 1033.96,-341.28 1027.18,-332.14"/>
<polygon fill="black" stroke="black" points="1029.98,-330.04 1021.21,-324.1 1024.36,-334.22 1029.98,-330.04"/>
</g>
<!-- [root] output.ubuntu1 -->
<g id="node13" class="node">
<title>[root] output.ubuntu1</title>
<polygon fill="none" stroke="black" points="1228.5,-324 1106.5,-324 1106.5,-288 1234.5,-288 1234.5,-318 1228.5,-324"/>
<polyline fill="none" stroke="black" points="1228.5,-324 1228.5,-318 "/>
<polyline fill="none" stroke="black" points="1234.5,-318 1228.5,-318 "/>
<text text-anchor="middle" x="1170.5" y="-302.3" font-family="Times,serif" font-size="14.00">output.ubuntu1</text>
</g>
<!-- [root] output.ubuntu1&#45;&gt;[root] aws_instance.ubuntu&#45;1&#45;instance (expand) -->
<g id="edge18" class="edge">
<title>[root] output.ubuntu1&#45;&gt;[root] aws_instance.ubuntu&#45;1&#45;instance (expand)</title>
<path fill="none" stroke="black" d="M1167.04,-287.7C1165.5,-279.98 1163.64,-270.71 1161.92,-262.11"/>
<polygon fill="black" stroke="black" points="1165.31,-261.22 1159.92,-252.1 1158.45,-262.6 1165.31,-261.22"/>
</g>
<!-- [root] output.ubuntu2 -->
<g id="node14" class="node">
<title>[root] output.ubuntu2</title>
<polygon fill="none" stroke="black" points="959.5,-396 837.5,-396 837.5,-360 965.5,-360 965.5,-390 959.5,-396"/>
<polyline fill="none" stroke="black" points="959.5,-396 959.5,-390 "/>
<polyline fill="none" stroke="black" points="965.5,-390 959.5,-390 "/>
<text text-anchor="middle" x="901.5" y="-374.3" font-family="Times,serif" font-size="14.00">output.ubuntu2</text>
</g>
<!-- [root] output.ubuntu2&#45;&gt;[root] aws_instance.ubuntu&#45;2&#45;instance (expand) -->
<g id="edge19" class="edge">
<title>[root] output.ubuntu2&#45;&gt;[root] aws_instance.ubuntu&#45;2&#45;instance (expand)</title>
<path fill="none" stroke="black" d="M900.54,-359.87C899.17,-335.67 896.67,-291.21 895.04,-262.39"/>
<polygon fill="black" stroke="black" points="898.53,-261.98 894.47,-252.19 891.54,-262.37 898.53,-261.98"/>
</g>
<!-- [root] provider[&quot;registry.terraform.io/hashicorp/aws&quot;] (close) -->
<g id="node16" class="node">
<title>[root] provider[&quot;registry.terraform.io/hashicorp/aws&quot;] (close)</title>
<ellipse fill="none" stroke="black" cx="527.5" cy="-378" rx="291.65" ry="18"/>
<text text-anchor="middle" x="527.5" y="-374.3" font-family="Times,serif" font-size="14.00">[root] provider[&quot;registry.terraform.io/hashicorp/aws&quot;] (close)</text>
</g>
<!-- [root] provider[&quot;registry.terraform.io/hashicorp/aws&quot;] (close)&#45;&gt;[root] aws_elb.polygon&#45;elb (expand) -->
<g id="edge20" class="edge">
<title>[root] provider[&quot;registry.terraform.io/hashicorp/aws&quot;] (close)&#45;&gt;[root] aws_elb.polygon&#45;elb (expand)</title>
<path fill="none" stroke="black" d="M635.75,-361.25C720.89,-348.86 838.14,-331.79 918.26,-320.13"/>
<polygon fill="black" stroke="black" points="918.94,-323.57 928.33,-318.67 917.93,-316.64 918.94,-323.57"/>
</g>
<!-- [root] provider[&quot;registry.terraform.io/hashicorp/aws&quot;] (close)&#45;&gt;[root] aws_route_table_association.polygon&#45;crta&#45;public&#45;subnet&#45;1 (expand) -->
<g id="edge21" class="edge">
<title>[root] provider[&quot;registry.terraform.io/hashicorp/aws&quot;] (close)&#45;&gt;[root] aws_route_table_association.polygon&#45;crta&#45;public&#45;subnet&#45;1 (expand)</title>
<path fill="none" stroke="black" d="M559.21,-360.05C576.78,-350.67 598.82,-338.89 617.66,-328.82"/>
<polygon fill="black" stroke="black" points="619.46,-331.83 626.63,-324.03 616.16,-325.66 619.46,-331.83"/>
</g>
<!-- [root] provider[&quot;registry.terraform.io/hashicorp/aws&quot;] (close)&#45;&gt;[root] aws_route_table_association.polygon&#45;crta&#45;public&#45;subnet&#45;2 (expand) -->
<g id="edge22" class="edge">
<title>[root] provider[&quot;registry.terraform.io/hashicorp/aws&quot;] (close)&#45;&gt;[root] aws_route_table_association.polygon&#45;crta&#45;public&#45;subnet&#45;2 (expand)</title>
<path fill="none" stroke="black" d="M453.48,-360.5C407.43,-350.23 348.01,-336.99 299.82,-326.24"/>
<polygon fill="black" stroke="black" points="300.55,-322.82 290.02,-324.06 299.02,-329.65 300.55,-322.82"/>
</g>
<!-- [root] root -->
<g id="node17" class="node">
<title>[root] root</title>
<ellipse fill="none" stroke="black" cx="980.5" cy="-450" rx="58.49" ry="18"/>
<text text-anchor="middle" x="980.5" y="-446.3" font-family="Times,serif" font-size="14.00">[root] root</text>
</g>
<!-- [root] root&#45;&gt;[root] output.loadbalance -->
<g id="edge23" class="edge">
<title>[root] root&#45;&gt;[root] output.loadbalance</title>
<path fill="none" stroke="black" d="M999.05,-432.76C1009.26,-423.84 1022.1,-412.6 1033.4,-402.71"/>
<polygon fill="black" stroke="black" points="1035.71,-405.34 1040.93,-396.12 1031.1,-400.07 1035.71,-405.34"/>
</g>
<!-- [root] root&#45;&gt;[root] output.ubuntu1 -->
<g id="edge24" class="edge">
<title>[root] root&#45;&gt;[root] output.ubuntu1</title>
<path fill="none" stroke="black" d="M1036.6,-444.65C1072.67,-438.94 1117.97,-425.86 1146.5,-396 1162.26,-379.5 1167.91,-353.77 1169.82,-334.21"/>
<polygon fill="black" stroke="black" points="1173.33,-334.3 1170.54,-324.07 1166.34,-333.8 1173.33,-334.3"/>
</g>
<!-- [root] root&#45;&gt;[root] output.ubuntu2 -->
<g id="edge25" class="edge">
<title>[root] root&#45;&gt;[root] output.ubuntu2</title>
<path fill="none" stroke="black" d="M962.18,-432.76C952.2,-423.92 939.67,-412.82 928.58,-403"/>
<polygon fill="black" stroke="black" points="930.63,-400.14 920.83,-396.12 925.99,-405.38 930.63,-400.14"/>
</g>
<!-- [root] root&#45;&gt;[root] provider[&quot;registry.terraform.io/hashicorp/aws&quot;] (close) -->
<g id="edge26" class="edge">
<title>[root] root&#45;&gt;[root] provider[&quot;registry.terraform.io/hashicorp/aws&quot;] (close)</title>
<path fill="none" stroke="black" d="M929.42,-441.11C859.76,-430.34 733.08,-410.77 640.5,-396.46"/>
<polygon fill="black" stroke="black" points="640.94,-392.99 630.52,-394.92 639.87,-399.91 640.94,-392.99"/>
</g>
</g>
</svg>
